<mxfile host="app.diagrams.net" modified="2024-06-18T00:05:17.056Z" agent="Mozilla/5.0 (Windows NT 10.0; Win64; x64) AppleWebKit/537.36 (KHTML, like Gecko) Chrome/125.0.0.0 Safari/537.36" etag="LQUcV774aYuykyibgayK" version="24.5.5" type="google">
  <diagram name="Página-1" id="l6bZUc8C8ffksCAHaWmv">
    <mxGraphModel grid="1" page="1" gridSize="10" guides="1" tooltips="1" connect="1" arrows="1" fold="1" pageScale="1" pageWidth="827" pageHeight="1169" math="0" shadow="0">
      <root>
        <mxCell id="0" />
        <mxCell id="1" parent="0" />
        <mxCell id="LusDm8QttiRQv6-CScLi-16" value="" style="swimlane;childLayout=stackLayout;resizeParent=1;resizeParentMax=0;startSize=20;html=1;container=1;fixedWidth=0;" vertex="1" parent="1">
          <mxGeometry x="250" y="30" width="1260" height="1290" as="geometry">
            <mxRectangle x="170.00000000000045" y="30" width="60" height="30" as="alternateBounds" />
          </mxGeometry>
        </mxCell>
        <mxCell id="LusDm8QttiRQv6-CScLi-21" value="Potencial Donante" style="swimlane;startSize=20;html=1;fixedWidth=0;" vertex="1" parent="LusDm8QttiRQv6-CScLi-16">
          <mxGeometry y="20" width="270" height="1270" as="geometry" />
        </mxCell>
        <mxCell id="yVy6hhsPJQW0zNbpOTFj-14" value="" style="edgeStyle=orthogonalEdgeStyle;rounded=0;orthogonalLoop=1;jettySize=auto;html=1;strokeColor=#ff0000;" edge="1" parent="LusDm8QttiRQv6-CScLi-21" source="yVy6hhsPJQW0zNbpOTFj-6" target="yVy6hhsPJQW0zNbpOTFj-13">
          <mxGeometry relative="1" as="geometry" />
        </mxCell>
        <mxCell id="yVy6hhsPJQW0zNbpOTFj-6" value="¿Quiere Donar?" style="rhombus;whiteSpace=wrap;html=1;fontColor=#000000;fillColor=#ffffc0;strokeColor=#ff0000;" vertex="1" parent="LusDm8QttiRQv6-CScLi-21">
          <mxGeometry x="130" y="230" width="120" height="90" as="geometry" />
        </mxCell>
        <mxCell id="yVy6hhsPJQW0zNbpOTFj-13" value="Responde preguntas de precarga" style="rounded=1;whiteSpace=wrap;html=1;fillColor=#ffffc0;strokeColor=#ff0000;fontColor=#000000;arcSize=40;" vertex="1" parent="LusDm8QttiRQv6-CScLi-21">
          <mxGeometry x="130" y="415" width="120" height="60" as="geometry" />
        </mxCell>
        <mxCell id="yVy6hhsPJQW0zNbpOTFj-21" value="Responde las preguntas de Salud" style="rounded=1;whiteSpace=wrap;html=1;fillColor=#ffffc0;strokeColor=#ff0000;fontColor=#000000;arcSize=40;" vertex="1" parent="LusDm8QttiRQv6-CScLi-21">
          <mxGeometry x="70" y="630" width="120" height="60" as="geometry" />
        </mxCell>
        <mxCell id="yVy6hhsPJQW0zNbpOTFj-9" value="" style="ellipse;html=1;shape=endState;fillColor=#000000;strokeColor=#ff0000;" vertex="1" parent="LusDm8QttiRQv6-CScLi-21">
          <mxGeometry x="20" y="260" width="30" height="30" as="geometry" />
        </mxCell>
        <mxCell id="yVy6hhsPJQW0zNbpOTFj-11" style="edgeStyle=orthogonalEdgeStyle;rounded=0;orthogonalLoop=1;jettySize=auto;html=1;exitX=0;exitY=0.5;exitDx=0;exitDy=0;strokeColor=#ff0000;" edge="1" parent="LusDm8QttiRQv6-CScLi-21" source="yVy6hhsPJQW0zNbpOTFj-6" target="yVy6hhsPJQW0zNbpOTFj-9">
          <mxGeometry relative="1" as="geometry" />
        </mxCell>
        <mxCell id="yVy6hhsPJQW0zNbpOTFj-12" value="No" style="edgeLabel;html=1;align=center;verticalAlign=middle;resizable=0;points=[];" connectable="0" vertex="1" parent="yVy6hhsPJQW0zNbpOTFj-11">
          <mxGeometry x="0.3782" y="-1" relative="1" as="geometry">
            <mxPoint as="offset" />
          </mxGeometry>
        </mxCell>
        <mxCell id="LusDm8QttiRQv6-CScLi-17" value="Visitadora" style="swimlane;startSize=20;html=1;fixedWidth=0;" vertex="1" parent="LusDm8QttiRQv6-CScLi-16">
          <mxGeometry x="270" y="20" width="340" height="1270" as="geometry" />
        </mxCell>
        <mxCell id="yVy6hhsPJQW0zNbpOTFj-1" value="" style="ellipse;html=1;shape=startState;fillColor=#000000;strokeColor=#ff0000;" vertex="1" parent="LusDm8QttiRQv6-CScLi-17">
          <mxGeometry x="150" y="50" width="30" height="30" as="geometry" />
        </mxCell>
        <mxCell id="yVy6hhsPJQW0zNbpOTFj-3" value="Pregunta si quiere donar" style="rounded=1;whiteSpace=wrap;html=1;arcSize=40;fontColor=#000000;fillColor=#ffffc0;strokeColor=#ff0000;" vertex="1" parent="LusDm8QttiRQv6-CScLi-17">
          <mxGeometry x="110" y="160" width="120" height="40" as="geometry" />
        </mxCell>
        <mxCell id="yVy6hhsPJQW0zNbpOTFj-5" value="" style="edgeStyle=orthogonalEdgeStyle;html=1;verticalAlign=bottom;endArrow=open;endSize=8;strokeColor=#ff0000;rounded=0;" edge="1" parent="LusDm8QttiRQv6-CScLi-17" source="yVy6hhsPJQW0zNbpOTFj-1" target="yVy6hhsPJQW0zNbpOTFj-3">
          <mxGeometry relative="1" as="geometry">
            <mxPoint x="600" y="210" as="targetPoint" />
            <mxPoint x="605" y="130" as="sourcePoint" />
            <Array as="points">
              <mxPoint x="165" y="140" />
              <mxPoint x="165" y="140" />
            </Array>
          </mxGeometry>
        </mxCell>
        <mxCell id="yVy6hhsPJQW0zNbpOTFj-15" value="Precarga los datos en el sistema" style="rounded=1;whiteSpace=wrap;html=1;fillColor=#ffffc0;strokeColor=#ff0000;fontColor=#000000;arcSize=40;" vertex="1" parent="LusDm8QttiRQv6-CScLi-17">
          <mxGeometry x="117" y="415" width="120" height="60" as="geometry" />
        </mxCell>
        <mxCell id="LusDm8QttiRQv6-CScLi-18" value="Visitadora A" style="swimlane;startSize=20;html=1;fixedWidth=0;" vertex="1" parent="LusDm8QttiRQv6-CScLi-16">
          <mxGeometry x="610" y="20" width="360" height="1270" as="geometry">
            <mxRectangle x="610" y="20" width="40" height="1270" as="alternateBounds" />
          </mxGeometry>
        </mxCell>
        <mxCell id="yVy6hhsPJQW0zNbpOTFj-20" value="" style="edgeStyle=orthogonalEdgeStyle;rounded=0;orthogonalLoop=1;jettySize=auto;html=1;strokeColor=#ff0000;" edge="1" parent="LusDm8QttiRQv6-CScLi-18" source="yVy6hhsPJQW0zNbpOTFj-17" target="yVy6hhsPJQW0zNbpOTFj-19">
          <mxGeometry relative="1" as="geometry" />
        </mxCell>
        <mxCell id="yVy6hhsPJQW0zNbpOTFj-17" value="Revisa información de Precarga" style="rounded=1;whiteSpace=wrap;html=1;fillColor=#ffffc0;strokeColor=#ff0000;fontColor=#000000;arcSize=40;" vertex="1" parent="LusDm8QttiRQv6-CScLi-18">
          <mxGeometry x="60" y="490" width="120" height="60" as="geometry" />
        </mxCell>
        <mxCell id="yVy6hhsPJQW0zNbpOTFj-19" value="Realiza preguntas de salud" style="rounded=1;whiteSpace=wrap;html=1;fillColor=#ffffc0;strokeColor=#ff0000;fontColor=#000000;arcSize=40;" vertex="1" parent="LusDm8QttiRQv6-CScLi-18">
          <mxGeometry x="60" y="630" width="120" height="60" as="geometry" />
        </mxCell>
        <mxCell id="yVy6hhsPJQW0zNbpOTFj-28" style="edgeStyle=orthogonalEdgeStyle;rounded=0;orthogonalLoop=1;jettySize=auto;html=1;strokeColor=#ff0000;" edge="1" parent="LusDm8QttiRQv6-CScLi-18" source="yVy6hhsPJQW0zNbpOTFj-23" target="yVy6hhsPJQW0zNbpOTFj-27">
          <mxGeometry relative="1" as="geometry" />
        </mxCell>
        <mxCell id="yVy6hhsPJQW0zNbpOTFj-29" value="No" style="edgeLabel;html=1;align=center;verticalAlign=middle;resizable=0;points=[];" connectable="0" vertex="1" parent="yVy6hhsPJQW0zNbpOTFj-28">
          <mxGeometry x="-0.2767" y="1" relative="1" as="geometry">
            <mxPoint as="offset" />
          </mxGeometry>
        </mxCell>
        <mxCell id="yVy6hhsPJQW0zNbpOTFj-31" style="edgeStyle=orthogonalEdgeStyle;rounded=0;orthogonalLoop=1;jettySize=auto;html=1;strokeColor=#ff0000;" edge="1" parent="LusDm8QttiRQv6-CScLi-18" source="yVy6hhsPJQW0zNbpOTFj-23" target="yVy6hhsPJQW0zNbpOTFj-30">
          <mxGeometry relative="1" as="geometry" />
        </mxCell>
        <mxCell id="yVy6hhsPJQW0zNbpOTFj-37" value="Si" style="edgeLabel;html=1;align=center;verticalAlign=middle;resizable=0;points=[];" connectable="0" vertex="1" parent="yVy6hhsPJQW0zNbpOTFj-31">
          <mxGeometry x="-0.1176" y="4" relative="1" as="geometry">
            <mxPoint as="offset" />
          </mxGeometry>
        </mxCell>
        <mxCell id="yVy6hhsPJQW0zNbpOTFj-23" value="Decide, ¿Es apta donante?" style="rhombus;whiteSpace=wrap;html=1;fontColor=#000000;fillColor=#ffffc0;strokeColor=#ff0000;" vertex="1" parent="LusDm8QttiRQv6-CScLi-18">
          <mxGeometry x="60" y="800" width="120" height="100" as="geometry" />
        </mxCell>
        <mxCell id="yVy6hhsPJQW0zNbpOTFj-27" value="" style="ellipse;html=1;shape=endState;fillColor=#000000;strokeColor=#ff0000;" vertex="1" parent="LusDm8QttiRQv6-CScLi-18">
          <mxGeometry x="300" y="835" width="30" height="30" as="geometry" />
        </mxCell>
        <mxCell id="yVy6hhsPJQW0zNbpOTFj-30" value="Realiza carga definitiva" style="rounded=1;whiteSpace=wrap;html=1;fillColor=#ffffc0;strokeColor=#ff0000;fontColor=#000000;arcSize=40;" vertex="1" parent="LusDm8QttiRQv6-CScLi-18">
          <mxGeometry x="60" y="1040" width="120" height="60" as="geometry" />
        </mxCell>
        <mxCell id="LusDm8QttiRQv6-CScLi-20" value="Transportista" style="swimlane;startSize=20;html=1;fixedWidth=0;" vertex="1" parent="LusDm8QttiRQv6-CScLi-16">
          <mxGeometry x="970" y="20" width="290" height="1270" as="geometry" />
        </mxCell>
        <mxCell id="yVy6hhsPJQW0zNbpOTFj-36" style="edgeStyle=orthogonalEdgeStyle;rounded=0;orthogonalLoop=1;jettySize=auto;html=1;strokeColor=#ff0000;" edge="1" parent="LusDm8QttiRQv6-CScLi-20" source="yVy6hhsPJQW0zNbpOTFj-32" target="yVy6hhsPJQW0zNbpOTFj-35">
          <mxGeometry relative="1" as="geometry" />
        </mxCell>
        <mxCell id="yVy6hhsPJQW0zNbpOTFj-32" value="Recibe notificación de nuevo donante asignado a su polígono" style="rounded=1;whiteSpace=wrap;html=1;arcSize=40;fontColor=#000000;fillColor=#ffffc0;strokeColor=#ff0000;" vertex="1" parent="LusDm8QttiRQv6-CScLi-20">
          <mxGeometry x="80" y="1040" width="180" height="60" as="geometry" />
        </mxCell>
        <mxCell id="yVy6hhsPJQW0zNbpOTFj-35" value="" style="ellipse;html=1;shape=endState;fillColor=#000000;strokeColor=#ff0000;" vertex="1" parent="LusDm8QttiRQv6-CScLi-20">
          <mxGeometry x="155" y="1200" width="30" height="30" as="geometry" />
        </mxCell>
        <mxCell id="yVy6hhsPJQW0zNbpOTFj-4" value="" style="edgeStyle=orthogonalEdgeStyle;html=1;verticalAlign=bottom;endArrow=open;endSize=8;strokeColor=#ff0000;rounded=0;" edge="1" parent="LusDm8QttiRQv6-CScLi-16" source="yVy6hhsPJQW0zNbpOTFj-3" target="yVy6hhsPJQW0zNbpOTFj-6">
          <mxGeometry relative="1" as="geometry">
            <mxPoint x="360" y="280" as="targetPoint" />
          </mxGeometry>
        </mxCell>
        <mxCell id="yVy6hhsPJQW0zNbpOTFj-16" value="" style="edgeStyle=orthogonalEdgeStyle;rounded=0;orthogonalLoop=1;jettySize=auto;html=1;strokeColor=#ff0000;" edge="1" parent="LusDm8QttiRQv6-CScLi-16" source="yVy6hhsPJQW0zNbpOTFj-13" target="yVy6hhsPJQW0zNbpOTFj-15">
          <mxGeometry relative="1" as="geometry" />
        </mxCell>
        <mxCell id="yVy6hhsPJQW0zNbpOTFj-18" style="edgeStyle=orthogonalEdgeStyle;rounded=0;orthogonalLoop=1;jettySize=auto;html=1;strokeColor=#ff0000;" edge="1" parent="LusDm8QttiRQv6-CScLi-16" source="yVy6hhsPJQW0zNbpOTFj-15" target="yVy6hhsPJQW0zNbpOTFj-17">
          <mxGeometry relative="1" as="geometry" />
        </mxCell>
        <mxCell id="yVy6hhsPJQW0zNbpOTFj-22" value="" style="edgeStyle=orthogonalEdgeStyle;rounded=0;orthogonalLoop=1;jettySize=auto;html=1;strokeColor=#ff0000;" edge="1" parent="LusDm8QttiRQv6-CScLi-16" source="yVy6hhsPJQW0zNbpOTFj-19" target="yVy6hhsPJQW0zNbpOTFj-21">
          <mxGeometry relative="1" as="geometry" />
        </mxCell>
        <mxCell id="yVy6hhsPJQW0zNbpOTFj-26" style="edgeStyle=orthogonalEdgeStyle;rounded=0;orthogonalLoop=1;jettySize=auto;html=1;strokeColor=#ff0000;" edge="1" parent="LusDm8QttiRQv6-CScLi-16" source="yVy6hhsPJQW0zNbpOTFj-21" target="yVy6hhsPJQW0zNbpOTFj-23">
          <mxGeometry relative="1" as="geometry">
            <Array as="points">
              <mxPoint x="130" y="870" />
            </Array>
          </mxGeometry>
        </mxCell>
        <mxCell id="yVy6hhsPJQW0zNbpOTFj-34" style="edgeStyle=orthogonalEdgeStyle;rounded=0;orthogonalLoop=1;jettySize=auto;html=1;strokeColor=#ff0000;" edge="1" parent="LusDm8QttiRQv6-CScLi-16" source="yVy6hhsPJQW0zNbpOTFj-30" target="yVy6hhsPJQW0zNbpOTFj-32">
          <mxGeometry relative="1" as="geometry" />
        </mxCell>
        <mxCell id="ISiAiONleoj_4ixvP2xW-1" value="ad:&amp;nbsp; Nuevo Donante" style="shape=umlFrame;whiteSpace=wrap;html=1;pointerEvents=0;width=80;height=50;" vertex="1" parent="1">
          <mxGeometry x="230" y="-40" width="1300" height="1390" as="geometry" />
        </mxCell>
      </root>
    </mxGraphModel>
  </diagram>
</mxfile>
